<mxfile host="app.diagrams.net" modified="2024-07-08T14:40:35.957Z" agent="Mozilla/5.0 (X11; Linux x86_64; rv:127.0) Gecko/20100101 Firefox/127.0" etag="ZIrQz73Ml9Tmnq3p_B9R" version="24.6.4" type="device">
  <diagram name="PT Flow" id="fcYrBAUWav3vPyfGR8o_">
    <mxGraphModel dx="264" dy="298" grid="1" gridSize="10" guides="1" tooltips="1" connect="1" arrows="1" fold="1" page="1" pageScale="1" pageWidth="1169" pageHeight="827" math="0" shadow="0">
      <root>
        <mxCell id="0" />
        <mxCell id="1" parent="0" />
        <mxCell id="Dy0mUnzWAKcq1K_zzdS--2" value="&lt;font data-font-src=&quot;https://fonts.googleapis.com/css?family=Permanent+Marker&quot; face=&quot;Permanent Marker&quot;&gt;APT/Campaign&lt;/font&gt;" style="rounded=0;whiteSpace=wrap;html=1;sketch=1;curveFitting=1;jiggle=2;" parent="1" vertex="1">
          <mxGeometry x="40" y="40" width="120" height="40" as="geometry" />
        </mxCell>
        <mxCell id="Dy0mUnzWAKcq1K_zzdS--4" value="&lt;font data-font-src=&quot;https://fonts.googleapis.com/css?family=Permanent+Marker&quot; face=&quot;Permanent Marker&quot;&gt;CTI&lt;/font&gt;" style="rounded=0;whiteSpace=wrap;html=1;sketch=1;curveFitting=1;jiggle=2;" parent="1" vertex="1">
          <mxGeometry x="40" y="160" width="120" height="80" as="geometry" />
        </mxCell>
        <mxCell id="Dy0mUnzWAKcq1K_zzdS--5" value="" style="endArrow=classic;html=1;rounded=0;exitX=0.5;exitY=1;exitDx=0;exitDy=0;entryX=0.5;entryY=0;entryDx=0;entryDy=0;sketch=1;curveFitting=1;jiggle=2;" parent="1" source="Dy0mUnzWAKcq1K_zzdS--2" target="Dy0mUnzWAKcq1K_zzdS--4" edge="1">
          <mxGeometry width="50" height="50" relative="1" as="geometry">
            <mxPoint x="580" y="490" as="sourcePoint" />
            <mxPoint x="630" y="440" as="targetPoint" />
          </mxGeometry>
        </mxCell>
        <mxCell id="Dy0mUnzWAKcq1K_zzdS--7" value="&lt;font data-font-src=&quot;https://fonts.googleapis.com/css?family=Permanent+Marker&quot; face=&quot;Permanent Marker&quot;&gt;CTI Blueprint&lt;/font&gt;" style="pointerEvents=1;shadow=0;dashed=0;html=1;strokeColor=none;fillColor=#505050;labelPosition=center;verticalLabelPosition=bottom;verticalAlign=top;outlineConnect=0;align=center;shape=mxgraph.office.concepts.document;sketch=1;curveFitting=1;jiggle=2;" parent="1" vertex="1">
          <mxGeometry x="80" y="280" width="40" height="47" as="geometry" />
        </mxCell>
        <mxCell id="Dy0mUnzWAKcq1K_zzdS--8" value="" style="endArrow=classic;html=1;rounded=0;exitX=0.5;exitY=1;exitDx=0;exitDy=0;sketch=1;curveFitting=1;jiggle=2;" parent="1" source="Dy0mUnzWAKcq1K_zzdS--4" target="Dy0mUnzWAKcq1K_zzdS--7" edge="1">
          <mxGeometry width="50" height="50" relative="1" as="geometry">
            <mxPoint x="180" y="400" as="sourcePoint" />
            <mxPoint x="230" y="350" as="targetPoint" />
          </mxGeometry>
        </mxCell>
        <mxCell id="Dy0mUnzWAKcq1K_zzdS--9" value="&lt;font data-font-src=&quot;https://fonts.googleapis.com/css?family=Permanent+Marker&quot; face=&quot;Permanent Marker&quot;&gt;Prioritize&lt;/font&gt;" style="sketch=1;aspect=fixed;pointerEvents=1;shadow=0;dashed=0;html=1;strokeColor=none;labelPosition=center;verticalLabelPosition=bottom;verticalAlign=top;align=center;fillColor=#000000;shape=mxgraph.mscae.enterprise.filter;curveFitting=1;jiggle=2;" parent="1" vertex="1">
          <mxGeometry x="350" y="273.5" width="50" height="45" as="geometry" />
        </mxCell>
        <mxCell id="Dy0mUnzWAKcq1K_zzdS--10" value="&lt;font face=&quot;Permanent Marker&quot;&gt;Defensive Scope&lt;br&gt;&lt;/font&gt;" style="html=1;verticalLabelPosition=bottom;align=center;labelBackgroundColor=#ffffff;verticalAlign=top;strokeWidth=2;strokeColor=#000000;shadow=0;dashed=0;shape=mxgraph.ios7.icons.looking_glass;sketch=1;curveFitting=1;jiggle=2;" parent="1" vertex="1">
          <mxGeometry x="235" y="273.5" width="60" height="60" as="geometry" />
        </mxCell>
        <mxCell id="Dy0mUnzWAKcq1K_zzdS--11" value="" style="endArrow=classic;html=1;rounded=0;sketch=1;curveFitting=1;jiggle=2;" parent="1" edge="1">
          <mxGeometry width="50" height="50" relative="1" as="geometry">
            <mxPoint x="130" y="304" as="sourcePoint" />
            <mxPoint x="220" y="304" as="targetPoint" />
          </mxGeometry>
        </mxCell>
        <mxCell id="Dy0mUnzWAKcq1K_zzdS--17" value="&lt;div style=&quot;font-size: 10px;&quot; align=&quot;left&quot;&gt;&lt;font style=&quot;font-size: 10px;&quot; data-font-src=&quot;https://fonts.googleapis.com/css?family=Permanent+Marker&quot; face=&quot;Permanent Marker&quot;&gt;Criteria&lt;/font&gt;&lt;/div&gt;&lt;div style=&quot;font-size: 10px;&quot; align=&quot;left&quot;&gt;&lt;font style=&quot;font-size: 10px;&quot; face=&quot;Permanent Marker&quot;&gt;- Risk = Likelyhood x Impact&lt;/font&gt;&lt;/div&gt;&lt;div style=&quot;font-size: 10px;&quot; align=&quot;left&quot;&gt;&lt;font style=&quot;font-size: 10px;&quot; face=&quot;Permanent Marker&quot;&gt;- Technology&lt;br&gt;&lt;/font&gt;&lt;/div&gt;&lt;div style=&quot;font-size: 10px;&quot; align=&quot;left&quot;&gt;&lt;font style=&quot;font-size: 10px;&quot; face=&quot;Permanent Marker&quot;&gt;- Current Defensive Gap&lt;br&gt;&lt;/font&gt;&lt;/div&gt;&lt;div style=&quot;font-size: 10px;&quot; align=&quot;left&quot;&gt;&lt;font style=&quot;font-size: 10px;&quot; face=&quot;Permanent Marker&quot;&gt;- D&lt;/font&gt;&lt;font style=&quot;font-size: 10px;&quot; data-font-src=&quot;https://fonts.googleapis.com/css?family=Permanent+Marker&quot; face=&quot;Permanent Marker&quot;&gt;ata Sources&lt;/font&gt;&lt;/div&gt;&lt;div style=&quot;font-size: 10px;&quot; align=&quot;left&quot;&gt;&lt;font style=&quot;font-size: 10px;&quot; data-font-src=&quot;https://fonts.googleapis.com/css?family=Permanent+Marker&quot; face=&quot;Permanent Marker&quot;&gt;- Complexity&lt;/font&gt;&lt;/div&gt;&lt;div style=&quot;font-size: 10px;&quot; align=&quot;left&quot;&gt;&lt;font style=&quot;font-size: 10px;&quot; data-font-src=&quot;https://fonts.googleapis.com/css?family=Permanent+Marker&quot; face=&quot;Permanent Marker&quot;&gt;- Variance&lt;br&gt;&lt;/font&gt;&lt;/div&gt;" style="text;html=1;strokeColor=none;fillColor=none;align=left;verticalAlign=middle;whiteSpace=wrap;rounded=0;" parent="1" vertex="1">
          <mxGeometry x="350" y="160" width="150" height="100" as="geometry" />
        </mxCell>
        <mxCell id="Dy0mUnzWAKcq1K_zzdS--19" value="&lt;div style=&quot;font-size: 10px;&quot; align=&quot;left&quot;&gt;&lt;font style=&quot;font-size: 10px;&quot; data-font-src=&quot;https://fonts.googleapis.com/css?family=Permanent+Marker&quot; face=&quot;Permanent Marker&quot;&gt;Criteria&lt;/font&gt;&lt;/div&gt;&lt;div style=&quot;font-size: 10px;&quot; align=&quot;left&quot;&gt;&lt;font style=&quot;font-size: 10px;&quot; face=&quot;Permanent Marker&quot;&gt;- Functionality: Detection/Mitigation etc.&lt;/font&gt;&lt;/div&gt;&lt;div style=&quot;font-size: 10px;&quot; align=&quot;left&quot;&gt;&lt;font style=&quot;font-size: 10px;&quot; face=&quot;Permanent Marker&quot;&gt;- Platforms&lt;/font&gt;&lt;/div&gt;&lt;div style=&quot;font-size: 10px;&quot; align=&quot;left&quot;&gt;&lt;font style=&quot;font-size: 10px;&quot; face=&quot;Permanent Marker&quot;&gt;- Implementations&lt;/font&gt;&lt;/div&gt;&lt;div style=&quot;font-size: 10px;&quot; align=&quot;left&quot;&gt;&lt;font style=&quot;font-size: 10px;&quot; face=&quot;Permanent Marker&quot;&gt;&lt;br&gt;&lt;/font&gt;&lt;/div&gt;" style="text;html=1;strokeColor=none;fillColor=none;align=left;verticalAlign=middle;whiteSpace=wrap;rounded=0;" parent="1" vertex="1">
          <mxGeometry x="190" y="150" width="150" height="100" as="geometry" />
        </mxCell>
        <mxCell id="Dy0mUnzWAKcq1K_zzdS--22" value="" style="endArrow=classic;html=1;rounded=0;sketch=1;curveFitting=1;jiggle=2;" parent="1" edge="1">
          <mxGeometry width="50" height="50" relative="1" as="geometry">
            <mxPoint x="300" y="296" as="sourcePoint" />
            <mxPoint x="350" y="296" as="targetPoint" />
          </mxGeometry>
        </mxCell>
        <mxCell id="Dy0mUnzWAKcq1K_zzdS--25" value="" style="endArrow=classic;html=1;rounded=0;sketch=1;curveFitting=1;jiggle=2;" parent="1" edge="1">
          <mxGeometry width="50" height="50" relative="1" as="geometry">
            <mxPoint x="390" y="296" as="sourcePoint" />
            <mxPoint x="480" y="296" as="targetPoint" />
          </mxGeometry>
        </mxCell>
        <mxCell id="Dy0mUnzWAKcq1K_zzdS--26" value="&lt;font face=&quot;Permanent Marker&quot;&gt;Capability Abstraction&lt;/font&gt;" style="pointerEvents=1;shadow=0;dashed=0;html=1;strokeColor=#9673a6;fillColor=#e1d5e7;labelPosition=center;verticalLabelPosition=bottom;verticalAlign=top;outlineConnect=0;align=center;shape=mxgraph.office.concepts.document;sketch=1;curveFitting=1;jiggle=2;" parent="1" vertex="1">
          <mxGeometry x="470" y="367" width="40" height="47" as="geometry" />
        </mxCell>
        <mxCell id="Dy0mUnzWAKcq1K_zzdS--44" value="&lt;font face=&quot;Permanent Marker&quot;&gt;High Level Plan&lt;br&gt;&lt;/font&gt;" style="pointerEvents=1;shadow=0;dashed=0;html=1;strokeColor=#9673a6;fillColor=#e1d5e7;labelPosition=center;verticalLabelPosition=bottom;verticalAlign=top;outlineConnect=0;align=center;shape=mxgraph.office.concepts.document;sketch=1;curveFitting=1;jiggle=2;" parent="1" vertex="1">
          <mxGeometry x="460" y="483" width="40" height="47" as="geometry" />
        </mxCell>
        <mxCell id="Dy0mUnzWAKcq1K_zzdS--52" value="&lt;font face=&quot;Permanent Marker&quot;&gt;Adversary Emulation Plan&lt;br&gt;&lt;/font&gt;" style="pointerEvents=1;shadow=0;dashed=0;html=1;strokeColor=#9673a6;fillColor=#e1d5e7;labelPosition=center;verticalLabelPosition=bottom;verticalAlign=top;outlineConnect=0;align=center;shape=mxgraph.office.concepts.document;sketch=1;curveFitting=1;jiggle=2;" parent="1" vertex="1">
          <mxGeometry x="689.5" y="570" width="40" height="47" as="geometry" />
        </mxCell>
        <mxCell id="Dy0mUnzWAKcq1K_zzdS--54" value="&lt;font data-font-src=&quot;https://fonts.googleapis.com/css?family=Permanent+Marker&quot; face=&quot;Permanent Marker&quot;&gt;Purple Team Exercise&lt;br&gt;&lt;/font&gt;" style="html=1;verticalLabelPosition=bottom;align=center;labelBackgroundColor=#ffffff;verticalAlign=top;strokeWidth=2;strokeColor=#9673a6;shadow=0;dashed=0;shape=mxgraph.ios7.icons.settings;fillColor=#e1d5e7;sketch=1;curveFitting=1;jiggle=2;" parent="1" vertex="1">
          <mxGeometry x="850" y="570" width="50" height="50" as="geometry" />
        </mxCell>
        <mxCell id="Dy0mUnzWAKcq1K_zzdS--55" value="&lt;font data-font-src=&quot;https://fonts.googleapis.com/css?family=Permanent+Marker&quot; face=&quot;Permanent Marker&quot;&gt;Table Top&lt;br&gt;&lt;/font&gt;" style="shape=mxgraph.signs.sports.picnic_table_2;html=1;pointerEvents=1;fillColor=#e1d5e7;strokeColor=#9673a6;verticalLabelPosition=bottom;verticalAlign=top;align=center;sketch=1;curveFitting=1;jiggle=2;" parent="1" vertex="1">
          <mxGeometry x="660" y="410" width="99" height="87" as="geometry" />
        </mxCell>
        <mxCell id="Dy0mUnzWAKcq1K_zzdS--57" value="" style="endArrow=classic;html=1;rounded=0;sketch=1;curveFitting=1;jiggle=2;" parent="1" edge="1">
          <mxGeometry width="50" height="50" relative="1" as="geometry">
            <mxPoint x="510" y="510" as="sourcePoint" />
            <mxPoint x="650" y="470" as="targetPoint" />
          </mxGeometry>
        </mxCell>
        <mxCell id="Dy0mUnzWAKcq1K_zzdS--58" value="" style="endArrow=classic;html=1;rounded=0;sketch=1;curveFitting=1;jiggle=2;" parent="1" edge="1">
          <mxGeometry width="50" height="50" relative="1" as="geometry">
            <mxPoint x="710" y="530" as="sourcePoint" />
            <mxPoint x="710" y="560" as="targetPoint" />
          </mxGeometry>
        </mxCell>
        <mxCell id="Dy0mUnzWAKcq1K_zzdS--59" value="" style="endArrow=classic;html=1;rounded=0;sketch=1;curveFitting=1;jiggle=2;" parent="1" edge="1">
          <mxGeometry width="50" height="50" relative="1" as="geometry">
            <mxPoint x="740" y="600" as="sourcePoint" />
            <mxPoint x="840" y="600" as="targetPoint" />
          </mxGeometry>
        </mxCell>
        <mxCell id="Dy0mUnzWAKcq1K_zzdS--60" value="&lt;font style=&quot;font-size: 10px;&quot; data-font-src=&quot;https://fonts.googleapis.com/css?family=Permanent+Marker&quot; face=&quot;Permanent Marker&quot;&gt;Results&lt;br&gt;- Benign vs. malicious&lt;br&gt;- Refine Hypothesis&lt;br&gt;- Confidence&lt;br&gt;&lt;/font&gt;" style="pointerEvents=1;shadow=0;dashed=0;html=1;strokeColor=#9673a6;fillColor=#e1d5e7;labelPosition=center;verticalLabelPosition=bottom;verticalAlign=top;outlineConnect=0;align=center;shape=mxgraph.office.concepts.document;sketch=1;curveFitting=1;jiggle=2;" parent="1" vertex="1">
          <mxGeometry x="982" y="573" width="40" height="47" as="geometry" />
        </mxCell>
        <mxCell id="Dy0mUnzWAKcq1K_zzdS--61" value="" style="endArrow=classic;html=1;rounded=0;sketch=1;curveFitting=1;jiggle=2;" parent="1" edge="1">
          <mxGeometry width="50" height="50" relative="1" as="geometry">
            <mxPoint x="910" y="600" as="sourcePoint" />
            <mxPoint x="960" y="600" as="targetPoint" />
          </mxGeometry>
        </mxCell>
        <mxCell id="Dy0mUnzWAKcq1K_zzdS--62" value="" style="endArrow=classic;html=1;rounded=0;sketch=1;curveFitting=1;jiggle=2;" parent="1" edge="1">
          <mxGeometry width="50" height="50" relative="1" as="geometry">
            <mxPoint x="510" y="340" as="sourcePoint" />
            <mxPoint x="490" y="360" as="targetPoint" />
          </mxGeometry>
        </mxCell>
        <mxCell id="Dy0mUnzWAKcq1K_zzdS--98" value="&lt;font data-font-src=&quot;https://fonts.googleapis.com/css?family=Permanent+Marker&quot; face=&quot;Permanent Marker&quot;&gt;Extract TTPs&lt;br&gt;&lt;/font&gt;" style="verticalLabelPosition=bottom;html=1;verticalAlign=top;align=center;strokeColor=#9673a6;fillColor=#e1d5e7;shape=mxgraph.azure.automation;pointerEvents=1;sketch=1;curveFitting=1;jiggle=2;" parent="1" vertex="1">
          <mxGeometry x="490" y="250" width="70" height="65" as="geometry" />
        </mxCell>
        <mxCell id="Dy0mUnzWAKcq1K_zzdS--106" value="&lt;font data-font-src=&quot;https://fonts.googleapis.com/css?family=Permanent+Marker&quot; face=&quot;Permanent Marker&quot;&gt;Refine/Improve&lt;br&gt;Analytics&lt;/font&gt;" style="sketch=1;html=1;aspect=fixed;strokeColor=#82b366;shadow=0;fillColor=#d5e8d4;verticalAlign=top;labelPosition=center;verticalLabelPosition=bottom;shape=mxgraph.gcp2.arrow_cycle;curveFitting=1;jiggle=2;" parent="1" vertex="1">
          <mxGeometry x="977" y="410" width="50" height="47.5" as="geometry" />
        </mxCell>
        <mxCell id="Dy0mUnzWAKcq1K_zzdS--108" value="" style="endArrow=classic;html=1;rounded=0;sketch=1;curveFitting=1;jiggle=2;" parent="1" edge="1">
          <mxGeometry width="50" height="50" relative="1" as="geometry">
            <mxPoint x="1002" y="560" as="sourcePoint" />
            <mxPoint x="1002" y="500" as="targetPoint" />
          </mxGeometry>
        </mxCell>
        <mxCell id="0uKEHey4B336cUfquH7n-1" value="&lt;font style=&quot;font-size: 10px;&quot; data-font-src=&quot;https://fonts.googleapis.com/css?family=Permanent+Marker&quot; face=&quot;Permanent Marker&quot;&gt;Red Team&lt;br&gt;&lt;/font&gt;" style="shape=umlActor;verticalLabelPosition=bottom;verticalAlign=top;html=1;outlineConnect=0;sketch=1;curveFitting=1;jiggle=2;fillColor=#f8cecc;strokeColor=#b85450;" parent="1" vertex="1">
          <mxGeometry x="670" y="520" width="10" height="30" as="geometry" />
        </mxCell>
        <mxCell id="0uKEHey4B336cUfquH7n-2" value="&lt;font face=&quot;Permanent Marker&quot;&gt;CTI&lt;/font&gt;" style="shape=umlActor;verticalLabelPosition=bottom;verticalAlign=top;html=1;outlineConnect=0;sketch=1;curveFitting=1;jiggle=2;fillColor=#d5e8d4;strokeColor=#82b366;" parent="1" vertex="1">
          <mxGeometry x="540" y="360" width="10" height="30" as="geometry" />
        </mxCell>
        <mxCell id="0uKEHey4B336cUfquH7n-3" value="&lt;font style=&quot;font-size: 10px;&quot; data-font-src=&quot;https://fonts.googleapis.com/css?family=Permanent+Marker&quot; face=&quot;Permanent Marker&quot;&gt;Blue Team&lt;br&gt;&lt;/font&gt;" style="shape=umlActor;verticalLabelPosition=bottom;verticalAlign=top;html=1;outlineConnect=0;sketch=1;curveFitting=1;jiggle=2;fillColor=#dae8fc;strokeColor=#6c8ebf;" parent="1" vertex="1">
          <mxGeometry x="1040" y="530" width="10" height="30" as="geometry" />
        </mxCell>
        <mxCell id="P2ksDGtk20z5NUmpqRyK-1" value="" style="endArrow=classic;html=1;rounded=0;" edge="1" parent="1">
          <mxGeometry width="50" height="50" relative="1" as="geometry">
            <mxPoint x="490" y="440" as="sourcePoint" />
            <mxPoint x="490" y="470" as="targetPoint" />
          </mxGeometry>
        </mxCell>
      </root>
    </mxGraphModel>
  </diagram>
</mxfile>
